<?xml version="1.0" encoding="iso-8859-1"?>
<!-- Generator: Adobe Illustrator 18.1.1, SVG Export Plug-In . SVG Version: 6.00 Build 0)  -->
<svg version="1.1" id="Capa_1" xmlns="http://www.w3.org/2000/svg" xmlns:xlink="http://www.w3.org/1999/xlink" x="0px" y="0px"
	 viewBox="0 0 554.475 554.475" style="enable-background:new 0 0 554.475 554.475;" xml:space="preserve">
<g>
	<g>
		<path style="fill:#010002;" d="M504.902,533.053c3.264,6.117,2.244,11.832-3.061,17.136c-2.447,2.448-5.715,3.672-9.791,3.672
			c-2.449,0-4.896-0.612-7.348-1.836l-125.459-73.44c-26.928,7.347-54.264,11.019-82.008,11.019
			c-38.352,0-74.358-6.427-108.018-19.278S106.181,440.032,81.089,418c-25.092-22.031-44.88-47.938-59.364-77.724
			C7.242,310.491,0,278.667,0,244.803c0-33.456,7.242-65.076,21.726-94.86C36.21,120.159,55.998,94.251,81.09,72.219
			s54.468-39.474,88.128-52.326c33.66-12.852,69.667-19.279,108.019-19.279c38.351,0,74.359,6.426,108.017,19.278
			c33.66,12.852,63.037,30.294,88.131,52.326c25.092,22.032,44.881,47.94,59.361,77.724c14.484,29.784,21.729,61.404,21.729,94.86
			c0,37.128-8.979,72.318-26.93,105.57c-17.949,33.252-43.248,61.506-75.889,84.764L504.902,533.053z"/>
	</g>
</g>
<g>
</g>
<g>
</g>
<g>
</g>
<g>
</g>
<g>
</g>
<g>
</g>
<g>
</g>
<g>
</g>
<g>
</g>
<g>
</g>
<g>
</g>
<g>
</g>
<g>
</g>
<g>
</g>
<g>
</g>
</svg>
