<svg xmlns="http://www.w3.org/2000/svg" xmlns:xlink="http://www.w3.org/1999/xlink" preserveAspectRatio="xMidYMid" width="24" height="20" viewBox="0 0 24 20">
  <defs>
    <style>

      .cls-2 {
        fill: #bbbbbb;
      }
    </style>
  </defs>
  <path d="M24.003,2.372 C23.120,2.774 22.171,3.045 21.174,3.167 C22.192,2.543 22.972,1.554 23.340,0.375 C22.388,0.954 21.335,1.374 20.212,1.600 C19.314,0.619 18.034,0.006 16.618,0.006 C13.898,0.006 11.692,2.266 11.692,5.052 C11.692,5.448 11.736,5.833 11.820,6.202 C7.727,5.992 4.097,3.983 1.668,0.930 C1.244,1.675 1.001,2.542 1.001,3.467 C1.001,5.217 1.871,6.762 3.192,7.667 C2.385,7.640 1.626,7.413 0.962,7.035 C0.961,7.056 0.961,7.077 0.961,7.099 C0.961,9.543 2.659,11.582 4.912,12.046 C4.499,12.162 4.064,12.223 3.614,12.223 C3.297,12.223 2.988,12.192 2.688,12.133 C3.315,14.137 5.133,15.596 7.288,15.637 C5.603,16.990 3.479,17.797 1.171,17.797 C0.774,17.797 0.382,17.773 -0.003,17.727 C2.177,19.158 4.765,19.993 7.547,19.993 C16.606,19.993 21.560,12.305 21.560,5.637 C21.560,5.419 21.555,5.201 21.546,4.984 C22.508,4.273 23.343,3.385 24.003,2.372 Z" id="path-1" class="cls-2" fillRule="evenodd"/>
</svg>
