<svg width="141" height="102" viewBox="0 0 141 102" xmlns="http://www.w3.org/2000/svg"><title>Icn 2</title><g fill="none" fillRule="evenodd"><path d="M54.5 0C24.4 0 0 20.765 0 46.378c0 12.32 5.658 23.51 14.868 31.816.058 5.887-1.023 14.82-6.565 23.806 17.343-1.93 29.362-7.796 32.93-10.635 4.247.904 8.69 1.39 13.267 1.39 30.1 0 54.5-20.763 54.5-46.377C109 20.765 84.6 0 54.5 0" fill="#7D5DFB"/><path d="M103 32c20.71 0 37.5 14.25 37.5 31.828 0 8.455-3.893 16.135-10.23 21.835-.04 4.04.704 10.17 4.517 16.337-11.933-1.326-20.203-5.35-22.658-7.298-2.924.62-5.98.954-9.13.954-20.71 0-37.5-14.25-37.5-31.828S82.29 32 103 32" fill="#A791FD"/></g></svg>