<?xml version="1.0" standalone="no"?>
<!DOCTYPE svg PUBLIC "-//W3C//DTD SVG 20010904//EN"
 "http://www.w3.org/TR/2001/REC-SVG-20010904/DTD/svg10.dtd">
<svg version="1.0" xmlns="http://www.w3.org/2000/svg"
 width="2500.000000pt" height="2500.000000pt" viewBox="0 0 2500.000000 2500.000000"
 preserveAspectRatio="xMidYMid meet">
<metadata>
Created by potrace 1.11, written by Peter Selinger 2001-2013
</metadata>
<g transform="translate(0.000000,2500.000000) scale(0.100000,-0.100000)"
fill="#000000" stroke="none">
<path d="M0 12500 l0 -12500 12500 0 12500 0 0 12500 0 12500 -12500 0 -12500
0 0 -12500z m7315 3330 c295 -51 517 -156 702 -333 179 -172 293 -400 345
-689 21 -118 22 -149 23 -703 l0 -580 -442 -3 -443 -2 0 422 c0 435 -8 598
-35 703 -25 96 -72 180 -135 238 -199 184 -462 181 -655 -7 -61 -60 -96 -123
-127 -233 -22 -75 -23 -92 -23 -488 0 -402 0 -411 23 -485 86 -272 327 -535
879 -953 589 -447 858 -778 940 -1157 16 -77 18 -141 18 -680 0 -573 -1 -600
-23 -719 -39 -220 -91 -361 -186 -506 -128 -196 -352 -360 -606 -446 -420
-140 -942 -108 -1308 81 -332 171 -517 424 -604 826 -20 94 -21 132 -25 707
l-4 607 445 0 445 0 3 -512 c4 -496 5 -515 26 -586 44 -145 97 -220 204 -292
186 -124 406 -102 577 56 139 128 171 275 171 784 0 278 -7 355 -41 446 -69
185 -323 449 -824 857 -347 283 -585 529 -745 769 -140 212 -211 373 -245 560
-24 130 -17 1190 9 1318 52 261 168 488 333 654 256 256 635 386 1083 370 74
-3 185 -14 245 -24z m4595 -505 l0 -435 -470 0 -470 0 0 -2840 0 -2840 -440 0
-440 0 -2 2838 -3 2837 -467 3 -468 2 0 435 0 435 1380 0 1380 0 0 -435z
m2733 407 c346 -79 610 -269 745 -539 88 -173 133 -364 152 -634 12 -182 12
-1182 0 -1351 -29 -396 -141 -678 -355 -892 -62 -63 -234 -186 -260 -186 -41
-1 -42 2 379 -1462 229 -794 416 -1448 416 -1451 0 -4 -204 -7 -452 -7 l-453
0 -390 1355 -390 1355 -172 0 -173 0 0 -1355 0 -1355 -455 0 -455 0 0 3275 0
3276 883 -4 c869 -3 883 -3 980 -25z m2709 -14 c3 -24 130 -1216 284 -2650
153 -1435 281 -2608 284 -2608 3 0 131 1173 284 2608 154 1434 281 2626 284
2650 l5 42 438 0 c345 0 439 -3 439 -12 0 -19 -790 -6489 -796 -6516 l-4 -22
-647 2 -647 3 -403 3250 c-221 1788 -402 3260 -403 3273 l0 22 439 0 438 0 5
-42z"/>
<path d="M13690 13840 l0 -1080 263 0 c297 0 362 9 461 63 107 59 166 153 204
327 14 65 17 157 17 690 0 557 -2 623 -18 699 -46 212 -144 324 -318 366 -49
11 -129 15 -336 15 l-273 0 0 -1080z"/>
</g>
</svg>
